<svg width="406" height="128" viewBox="0 0 406 128" fill="none" xmlns="http://www.w3.org/2000/svg">
<path fill-rule="evenodd" clip-rule="evenodd" d="M28.5934 44.8504C29.8586 41.8817 31.438 38.9589 33.3124 36.1602L33.3441 36.1122L33.3443 36.1119C33.5483 35.8028 33.7545 35.497 33.9626 35.1945C46.2824 16.0855 72.7324 4.63474 95.0957 14.7787C112.77 22.3436 121.24 37.7913 120.996 51.5447C120.873 58.4028 118.555 65.0933 113.769 69.9297C112.949 70.7575 112.072 71.5164 111.14 72.2025C115.459 75.6317 118.284 79.8021 119.018 84.6751C120.115 91.9673 116.181 98.4846 110.643 103.293C99.562 112.913 78.7973 118.942 55.1446 116.428C51.215 116.071 37.0192 113.28 33.7871 108.093C32.0773 107.268 30.5163 106.29 29.1677 105.142C26.9572 103.259 25.1314 100.746 24.4585 97.5765C23.4792 92.965 26.0115 85.1307 31.2693 82.8897C33.1603 92.1756 39.9027 92.7389 44.9092 93.262C46.9596 91.5404 47.9475 90.5656 50.0112 87.9834C46.0059 88.3065 40.9216 87.2143 37.0192 85.1307C29.861 81.3085 25.5488 74.2887 25.0794 64.2607C24.6144 57.6913 26.0258 50.8748 28.5934 44.8504ZM38.6508 38.3004C38.4469 38.5959 38.2448 38.8951 38.0449 39.1981C38.0313 39.2186 38.0178 39.2392 38.0043 39.2597C36.3176 41.7755 34.902 44.396 33.7726 47.046C33.7772 47.0872 33.782 47.1281 33.7871 47.1689C31.4604 52.7401 30.3717 58.4259 30.6718 63.5365C30.6807 63.6876 30.6907 63.8383 30.7021 63.9883L30.703 64.0007L30.7004 63.9887L30.701 64.0011C30.7069 64.1257 30.7134 64.2496 30.7206 64.3727C31.545 78.5052 41.1924 83.0307 53.0469 82.8897C54.9669 82.8668 56.9449 82.7216 58.9526 82.4749C58.4355 84.7006 57.8555 86.6276 57.1206 88.3065C56.0672 90.7127 54.6956 92.6091 52.7346 94.1441C59.8011 94.6787 67.4517 93.6363 74.2998 91.5404C83.7606 90.8478 98.4416 85.4233 95.4613 74.9673L95.4616 74.9671C95.4129 74.7959 95.3593 74.6234 95.301 74.4495C94.9812 73.2628 94.5973 72.1081 94.2056 71.0157L94.1761 70.9336L94.2104 70.9672C96.3185 71.1745 98.2801 71.1185 100.09 70.8327C100.238 70.8093 100.385 70.7845 100.53 70.7581C100.852 70.6999 101.169 70.6343 101.481 70.5615C101.804 70.486 102.122 70.4028 102.435 70.3121C103.52 69.9974 104.54 69.5924 105.494 69.1062C105.505 69.1011 105.515 69.0959 105.525 69.0908C105.534 69.0858 105.544 69.0809 105.554 69.0759L105.555 69.0752C105.707 68.997 105.858 68.9166 106.006 68.8342C121.158 60.4422 118.729 30.9608 92.8204 19.9126C73.5025 11.112 49.793 20.9435 38.6508 38.3004ZM101.291 72.7387C112.816 86.0836 101.446 98.2023 83.4889 104.863C90.1655 100.549 95.6469 93.794 98.9485 84.0025C78.9708 102.902 33.1316 104.858 30.9946 92.1756C30.9544 91.7306 30.9339 91.2699 30.9336 90.7931L30.9342 90.7843C26.3365 99.8204 36.5186 105.414 50.4612 106.224C50.5211 106.227 50.5811 106.231 50.6411 106.234C50.9306 106.25 51.2218 106.264 51.5144 106.275C53.0116 106.336 54.5479 106.342 56.1102 106.293C56.1355 106.292 56.1607 106.291 56.186 106.29C58.4069 106.217 60.6799 106.032 62.9673 105.729C71.1908 104.642 79.6015 102.041 86.4504 97.7131C82.6038 101.057 78.8436 103.494 75.0133 105.282C68.9859 108.095 62.785 109.297 55.8006 109.883L55.7845 109.884C54.1778 110.018 52.5296 110.12 50.8325 110.202C52.449 110.481 54.0733 110.696 55.6976 110.843C58.2626 111.116 60.7819 111.283 63.2468 111.352C67.894 111.482 72.3477 111.263 76.5501 110.752C106.326 107.133 123.483 88.8761 107.409 76.4107C106.862 75.9864 106.276 75.5687 105.651 75.1586C104.368 74.3164 102.919 73.5059 101.297 72.7341L101.281 72.7268L101.291 72.7386L101.291 72.7387Z" fill="#C5F955"/>
<path d="M38.0445 39.1982C24.7601 59.3263 28.2961 85.9518 56.9221 81.2335L85.3018 71.8917C111.881 63.0467 113.151 35.9424 96.3819 23.9949C83.675 14.9411 54.2278 14.6797 38.0445 39.1982Z" fill="#FF3E8F"/>
<path fill-rule="evenodd" clip-rule="evenodd" d="M52.8765 55.0381C65.4826 51.6273 78.8277 37.1316 80.8799 18.5492C76.5147 18.1456 71.6592 18.4421 66.3489 19.6132C50.3647 23.1389 39.0003 34.7774 33.7715 47.046C34.8326 56.5519 49.5651 55.9356 52.8765 55.0381Z" fill="#C5F955"/>
<path fill-rule="evenodd" clip-rule="evenodd" d="M52.8777 55.038C65.4838 51.6272 77.2843 37.6664 79.3364 19.0841L75.7175 19.9497C69.8751 40.946 53.4177 55.6814 38.6392 51.5778C40.8223 55.6242 51.1721 55.5003 52.8777 55.038Z" fill="#67B800"/>
<path fill-rule="evenodd" clip-rule="evenodd" d="M75.8518 22.9671C59.1734 19.6257 39.5089 30.1583 34.8428 48.3276C41.622 35.3164 60.3299 23.588 75.8518 22.9671Z" fill="#E9FFCE"/>
<path d="M109.474 39.6607L83.9131 74.7883L57.8693 80.2871C57.5908 80.4897 57.3407 80.4021 57.3348 80.4001L57.3347 80.4L57.8693 80.2871C58.2924 79.9796 58.7811 79.0031 58.5804 76.0428C58.0398 74.509 57.6763 70.8932 54.0025 68.4338C52.2384 67.2529 50.5685 65.6826 50.8611 63.58C51.1499 61.5052 53.0217 60.2753 55.0584 59.7858C72.6602 55.5554 80.7952 37.5335 82.6027 20.5048L98.0177 27.1794L109.474 39.6607Z" fill="#C91C65"/>
<path d="M93.4218 62.0315C82.7727 57.4514 87.9985 37.4668 100.311 32.752C100.315 32.758 100.32 32.7641 100.324 32.7701C92.8156 38.8661 91.5058 52.0718 97.4434 58.3786C96.6073 59.2844 95.6856 60.1792 94.6756 61.0591C94.2754 61.3811 93.8571 61.7055 93.4218 62.0315Z" fill="#4C8700"/>
<path fill-rule="evenodd" clip-rule="evenodd" d="M32.2886 69.6768C41.2329 68.4183 55.8083 72.1742 56.2922 80.2732C46.2784 80.851 35.4816 75.6476 32.2886 69.6768Z" fill="#67B800"/>
<path d="M33.7134 71.7392C35.0389 72.6614 36.9957 73.5062 39.7963 74.1083C43.9116 74.9932 48.5028 74.4246 51.746 73.5835C46.6123 70.2103 38.2145 68.843 32.2886 69.6768C32.6633 70.3776 33.1428 71.0677 33.7134 71.7392Z" fill="#C5F955"/>
<path d="M62.3445 74.6389C63.8266 58.4041 86.7492 55.9793 90.4714 66.2271C90.7754 67.1463 91.1567 68.1478 91.5597 69.2061C92.6591 72.0932 93.9197 75.4037 94.2111 78.6241C89.7667 86.767 74.1703 93.4528 59.2632 94.2109C63.7891 84.6928 62.3445 74.6389 62.3445 74.6389Z" fill="white"/>
<path d="M89.3063 85.0165L74.2479 91.5429C84.3765 86.2386 84.8985 63.8594 74.0493 66.0942L83.0547 62.2589L91.4943 69.585L89.3063 85.0165Z" fill="#FF97C2"/>
<path fill-rule="evenodd" clip-rule="evenodd" d="M92.8202 19.9124C89.7638 18.52 86.4546 17.523 82.9856 17.0199L82.9861 17.0181L82.952 17.015C65.4485 14.493 47.5879 23.7601 38.1759 39.0553C47.5069 26.5287 64.5029 19.275 78.5701 21.2314C77.38 28.3175 72.8 38.8694 64.5029 46.3375C56.2678 53.7498 43.7865 56.5458 36.1368 51.9806C41.776 58.6836 58.9132 57.8251 68.2247 49.7807C76.955 42.2383 82.3651 30.4497 83.3606 22.2459C83.768 22.3453 84.1705 22.4505 84.5679 22.5612C88.8133 23.908 89.9923 27.5611 90.2789 30.1165C90.4683 31.8046 89.4221 33.2779 88.179 34.4391C85.5464 36.8983 82.9226 40.8659 81.3997 45.1329C79.6807 49.9492 77.3884 54.9273 73.217 57.8983C71.3512 59.2272 69.8711 60.3709 68.7314 61.3673C64.7544 63.9895 61.6941 68.305 60.5067 74.472C60.3356 75.3605 60.2393 75.8801 60.101 76.6522C46.2591 79.4038 33.5 77.2601 30.7002 63.9885C31.479 80.7402 44.4371 84.2581 58.9524 82.4747C57.694 87.8902 56.0637 91.5379 52.7343 94.1439C55.2558 94.3347 57.8516 94.3246 60.4588 94.1376C62.7252 91.3304 63.504 86.3691 64.1696 82.129L64.1697 82.1288C64.3226 81.1543 64.4696 80.2179 64.6273 79.3545C64.6966 78.9622 64.7726 78.579 64.8551 78.2049C64.9169 77.9201 64.9812 77.647 65.0487 77.3871H65.0491C69.3908 60.3265 87.6056 63.3376 88.4893 75.1466C88.5098 75.4204 88.5321 75.6859 88.5538 75.9444C88.9525 80.685 89.1547 83.0903 74.2473 91.5434L74.2458 91.5441C83.8592 90.8573 98.9307 85.2645 95.3008 74.4495C94.9729 73.2329 94.5777 72.05 94.1758 70.9334L94.2101 70.9669C121.145 73.6159 124.161 33.2772 92.8202 19.9124ZM100.311 32.7518C87.9984 37.4666 82.7726 57.4512 93.4217 62.0313L97.4434 58.3784C91.5057 52.0716 92.8156 38.8659 100.324 32.7699L100.311 32.7518Z" fill="#181818"/>
<path d="M55.6973 110.843C100.933 115.67 131.935 87.2976 101.281 72.7265C112.823 86.0762 101.451 98.2001 83.4891 104.862C90.1657 100.549 95.6471 93.7938 98.9487 84.0023C78.267 103.568 29.8692 104.975 30.9347 90.7803C22.5428 107.27 63.3666 112.299 86.4502 97.7129C75.1538 107.532 64.6024 109.541 50.8322 110.201C52.4488 110.481 54.0731 110.696 55.6973 110.843Z" fill="#181818"/>
<path fill-rule="evenodd" clip-rule="evenodd" d="M46.6632 48.2364C44.8876 48.1912 43.6925 47.2938 43.994 46.232C44.8919 43.0694 45.5676 38.2031 45.2111 34.3106C45.1154 33.2647 46.4957 32.2637 48.2942 32.0747C50.0927 31.8857 51.6283 32.5803 51.7241 33.6261C52.1102 37.8422 51.389 42.9974 50.4241 46.3958C50.1227 47.4576 48.4388 48.2817 46.6632 48.2364Z" fill="#181818"/>
<path d="M44.3418 47.4355C44.3418 47.4355 45.4056 48.077 46.9303 47.2597C49.3935 45.9394 49.9681 37.9851 49.9681 33.3394C49.9681 32.0843 48.4237 32.0626 48.4237 32.0626C50.1659 31.9194 51.6306 32.6055 51.7241 33.6261C52.1102 37.8422 51.389 42.9974 50.4241 46.3958C50.1227 47.4576 48.4388 48.2817 46.6632 48.2364C45.636 48.2103 44.8031 47.8989 44.3418 47.4355Z" fill="#FF3E8F"/>
<path fill-rule="evenodd" clip-rule="evenodd" d="M60.569 41.8423C58.7933 41.797 57.5983 40.8996 57.8997 39.8378C58.7976 36.6752 59.4733 31.809 59.1169 27.9164C59.0211 26.8706 60.4015 25.8695 62.2 25.6805C63.9985 25.4915 65.5341 26.1861 65.6298 27.2319C66.0159 31.448 65.2947 36.6032 64.3299 40.0016C64.0284 41.0634 62.3446 41.8875 60.569 41.8423Z" fill="#181818"/>
<path d="M58.2476 41.0413C58.2476 41.0413 59.3114 41.6828 60.8361 40.8655C63.2992 39.5452 63.8739 31.5909 63.8739 26.9452C63.8739 25.6902 62.3295 25.6684 62.3295 25.6684C64.0716 25.5252 65.5364 26.2113 65.6298 27.2319C66.0159 31.448 65.2947 36.6032 64.3299 40.0016C64.0284 41.0634 62.3446 41.8875 60.569 41.8423C59.5418 41.8161 58.7089 41.5047 58.2476 41.0413Z" fill="#FF3E8F"/>
<path d="M23.8951 11L26.5617 18.2545L33.7682 20.9389L26.5617 23.6234L23.8951 30.8779L21.2285 23.6234L14.022 20.9389L21.2285 18.2545L23.8951 11Z" fill="#C5F955"/>
<path d="M12.6286 29.7733L14.1488 33.938L18.2572 35.479L14.1488 37.0201L12.6286 41.1847L11.1084 37.0201L7 35.479L11.1084 33.938L12.6286 29.7733Z" fill="#C5F955"/>
<path d="M390.719 105V43.736H402.031V105H390.719ZM390.719 33.9921V22.6801H402.031V33.9921H390.719Z" fill="#BEEF54"/>
<path d="M363.186 105.896C360.572 105.896 358.314 104.571 356.41 101.92C354.506 99.2693 353.554 95.2186 353.554 89.768C353.554 84.504 354.674 80.2666 356.914 77.056C359.191 73.8453 362.588 71.064 367.106 68.712C368.524 67.9653 369.719 67.2933 370.69 66.696C371.66 66.0986 372.258 65.5386 372.482 65.016V58.296C372.482 56.7653 372.295 55.4586 371.922 54.376C371.586 53.256 370.727 52.696 369.346 52.696C368.076 52.696 367.218 53.2933 366.77 54.488C366.322 55.6453 366.098 57.1013 366.098 58.856V61.768H354.786V59.192C354.786 55.832 355.439 52.9386 356.746 50.512C358.09 48.048 359.9 46.1626 362.178 44.856C364.492 43.512 367.106 42.84 370.018 42.84C372.818 42.84 375.244 43.4933 377.298 44.8C379.351 46.0693 380.938 47.8426 382.058 50.12C383.215 52.36 383.794 54.936 383.794 57.848V94.36C383.794 97.0853 383.868 99.2133 384.018 100.744C384.167 102.237 384.354 103.656 384.578 105H373.49C373.004 104.403 372.706 103.525 372.594 102.368C372.519 101.211 372.482 100.445 372.482 100.072H371.698C370.764 101.789 369.57 103.189 368.114 104.272C366.695 105.355 365.052 105.896 363.186 105.896ZM367.778 94.808C369.084 94.808 370.186 94.36 371.082 93.464C372.015 92.568 372.482 91.5973 372.482 90.552V75.992C369.756 77.1493 367.759 78.904 366.49 81.256C365.258 83.5706 364.642 86.184 364.642 89.096C364.642 90.3653 364.884 91.6346 365.37 92.904C365.855 94.1733 366.658 94.808 367.778 94.808Z" fill="#BEEF54"/>
<path d="M336.896 105V92.568H348.656V105H336.896Z" fill="#BEEF54"/>
<path d="M305.281 126.952C304.795 126.952 304.217 126.933 303.545 126.896C302.873 126.859 302.219 126.784 301.585 126.672V116.648C301.697 116.685 301.995 116.723 302.481 116.76C302.966 116.835 303.283 116.872 303.433 116.872C305.523 116.872 307.203 116.312 308.473 115.192C309.779 114.072 310.694 112.579 311.217 110.712C311.403 110.152 311.497 109.499 311.497 108.752C311.534 108.005 311.553 107.352 311.553 106.792L301.137 43.736H312.225L316.705 81.928L316.929 86.184H317.377L317.601 81.928L322.081 43.736H333.169L322.305 109.592C321.894 112.877 320.961 115.827 319.505 118.44C318.086 121.091 316.182 123.163 313.793 124.656C311.403 126.187 308.566 126.952 305.281 126.952Z" fill="#BEEF54"/>
<path d="M267.878 105V22.6801H279.19V47.9361C280.161 46.9281 281.598 45.8267 283.502 44.6321C285.406 43.4374 287.217 42.8401 288.934 42.8401C290.801 42.8401 292.369 43.3814 293.638 44.4641C294.907 45.5467 295.859 47.0027 296.494 48.8321C297.129 50.6241 297.446 52.6214 297.446 54.8241V105H286.134V57.1761C286.134 56.0561 285.873 55.1601 285.35 54.4881C284.865 53.7787 284.286 53.4241 283.614 53.4241C282.83 53.4241 281.897 53.872 280.814 54.7681C279.731 55.6267 279.19 56.5974 279.19 57.6801V105H267.878Z" fill="#BEEF54"/>
<path d="M248.972 105.896C246.322 105.896 244.007 105.448 242.028 104.552C240.05 103.656 238.407 102.387 237.1 100.744C235.794 99.064 234.804 97.0853 234.132 94.808C233.498 92.5306 233.18 89.992 233.18 87.192H243.708C243.708 89.6933 244.1 91.8773 244.884 93.744C245.706 95.5733 247.068 96.488 248.972 96.488C250.615 96.488 251.679 95.7973 252.164 94.416C252.65 93.0346 252.892 91.448 252.892 89.656C252.892 87.5653 252.071 85.4373 250.428 83.272C248.823 81.0693 247.143 79.1093 245.388 77.392C242.364 74.4053 239.844 71.456 237.828 68.544C235.85 65.632 234.86 62.216 234.86 58.296C234.86 53.6666 236.074 49.9333 238.5 47.096C240.927 44.2586 244.38 42.84 248.86 42.84C251.548 42.84 253.807 43.1946 255.636 43.904C257.503 44.6133 258.996 45.6773 260.116 47.096C261.236 48.5146 262.039 50.2506 262.524 52.304C263.047 54.3573 263.308 56.728 263.308 59.416H252.78C252.78 57.4746 252.575 55.7946 252.164 54.376C251.754 52.9573 250.727 52.248 249.084 52.248C247.74 52.248 246.788 52.8266 246.228 53.984C245.668 55.104 245.388 56.5413 245.388 58.296C245.388 60.3493 245.874 62.1786 246.844 63.784C247.852 65.352 249.514 67.2746 251.828 69.552C254.74 72.3893 257.391 75.4133 259.78 78.624C262.207 81.8346 263.42 85.3253 263.42 89.096C263.42 91.56 263.084 93.8186 262.412 95.872C261.778 97.9253 260.826 99.6986 259.556 101.192C258.324 102.685 256.812 103.843 255.02 104.664C253.266 105.485 251.25 105.896 248.972 105.896Z" fill="#BEEF54"/>
<path d="M215.05 105.896C210.533 105.896 206.968 104.347 204.354 101.248C201.778 98.112 200.49 94.2853 200.49 89.768V58.968C200.49 54.1893 201.778 50.3066 204.354 47.32C206.93 44.3333 210.533 42.84 215.162 42.84C218.186 42.84 220.781 43.5306 222.946 44.912C225.149 46.2933 226.829 48.1786 227.986 50.568C229.144 52.92 229.722 55.608 229.722 58.632V76.44H211.018V89.768C211.018 91.2986 211.354 92.7173 212.026 94.024C212.736 95.2933 213.781 95.928 215.162 95.928C216.618 95.928 217.645 95.3306 218.242 94.136C218.877 92.9413 219.194 91.4853 219.194 89.768V83.048H229.722V90.104C229.722 94.8453 228.434 98.672 225.858 101.584C223.32 104.459 219.717 105.896 215.05 105.896ZM211.018 67.592H219.194V58.968C219.194 57.288 218.896 55.832 218.298 54.6C217.738 53.3306 216.693 52.696 215.162 52.696C213.744 52.696 212.698 53.3493 212.026 54.656C211.354 55.9253 211.018 57.3626 211.018 58.968V67.592Z" fill="#BEEF54"/>
<path d="M148.48 105V22.6801H163.824L170.432 65.3521L170.992 69.7201H171.216L171.776 65.3521L178.384 22.6801H193.728V105H182.528V49.7841H181.856L181.408 53.2561L174.24 105H167.968L160.8 53.2561L160.352 49.7841H159.68V105H148.48Z" fill="#BEEF54"/>
</svg>
